<svg xmlns="http://www.w3.org/2000/svg" xmlns:xlink="http://www.w3.org/1999/xlink" width="50" height="50" viewBox="0 0 50 50">
  <defs>
    <clipPath id="clip-path">
      <path id="Tracé_13" data-name="Tracé 13" d="M187.5,206.352h50v50h-50Zm0,0" transform="translate(-187.5 -206.352)"/>
    </clipPath>
    <clipPath id="clip-path-2">
      <path id="Tracé_16" data-name="Tracé 16" d="M259.523,293h5.492v1.333h-5.492Zm0,0" transform="translate(-259.523 -293)"/>
    </clipPath>
    <clipPath id="clip-path-3">
      <path id="Tracé_19" data-name="Tracé 19" d="M265.625,274.941h16.7v13.75h-16.7Zm0,0" transform="translate(-265.625 -274.941)"/>
    </clipPath>
    <clipPath id="clip-path-4">
      <path id="Tracé_22" data-name="Tracé 22" d="M238,246.289h4.333v4.237H238Zm0,0" transform="translate(-238 -246.289)"/>
    </clipPath>
    <clipPath id="clip-path-5">
      <path id="Tracé_24" data-name="Tracé 24" d="M221,259h13.936v19H221Zm0,0" transform="translate(-221 -259)"/>
    </clipPath>
  </defs>
  <g id="Groupe_40" data-name="Groupe 40" transform="translate(-963.664 -614.555)">
    <g id="Groupe_9" data-name="Groupe 9" transform="translate(963.664 614.555)" clip-path="url(#clip-path)">
      <path id="Tracé_12" data-name="Tracé 12" d="M235.953,238.017a23.959,23.959,0,0,1-2.8,6.091,28.187,28.187,0,0,1-3.387,4.289c-.164.178-.346.34-.521.508s-.349.338-.528.5l-.55.478-.275.24-.285.225-.569.456c-.193.147-.39.286-.586.43-.386.3-.8.556-1.2.828-.059.039-.119.081-.182.123l-.2.124-.457.273c-.322.2-.7.391-1.111.609-.1.052-.207.111-.317.163l-.335.156-.708.327c-.5.2-1.019.43-1.588.612a23.89,23.89,0,0,1-15.7,0c-.569-.182-1.09-.417-1.588-.612l-.708-.327-.335-.156c-.109-.052-.212-.111-.317-.163-.41-.219-.789-.409-1.111-.609l-.457-.273-.2-.124c-.062-.042-.124-.083-.182-.121a28.02,28.02,0,0,1-4.262-3.413,27.657,27.657,0,0,1-3.635-4.542,23.918,23.918,0,0,1-2.8-6.091,23.034,23.034,0,0,1,0-13.332,23.957,23.957,0,0,1,2.8-6.091,28.268,28.268,0,0,1,3.387-4.289c.164-.178.346-.339.521-.508s.349-.339.528-.5l.55-.478.275-.24.285-.225.569-.454c.193-.147.391-.286.586-.431.386-.3.8-.555,1.2-.828l.182-.122.2-.124.457-.272c.322-.2.7-.392,1.111-.611.1-.052.207-.111.317-.163l.335-.156.708-.327c.5-.2,1.019-.43,1.588-.612a23.884,23.884,0,0,1,15.7,0c.569.182,1.09.417,1.588.612l.708.327.335.156c.109.052.212.111.317.163.41.219.789.409,1.111.609l.457.273.2.124.182.122a28.011,28.011,0,0,1,4.262,3.411,27.728,27.728,0,0,1,3.635,4.542,23.915,23.915,0,0,1,2.8,6.091,23.057,23.057,0,0,1,0,13.332Zm1.547-6.682v0a24.11,24.11,0,0,0-3.87-13.034l-.593-.89-.428-.6c-.247-.367-.626-.819-.988-1.284-.389-.441-.763-.9-1.078-1.208l-.508-.531-.145-.142-.384-.37c-.31-.316-.759-.7-1.2-1.086-.227-.187-.46-.368-.674-.542l-.311-.247c-.1-.074-.2-.143-.289-.208l-.6-.431s-.052-.042-.135-.1l-.3-.2-.445-.3-.186-.126-.208-.126c-.145-.087-.3-.181-.467-.28-.328-.207-.716-.4-1.136-.626-.105-.055-.211-.113-.323-.167l-.343-.16-.724-.336c-.512-.2-1.044-.44-1.626-.627a24.4,24.4,0,0,0-16.07,0c-.582.187-1.115.427-1.626.627l-.724.336-.343.16c-.112.053-.217.112-.323.167-.419.224-.807.419-1.136.626-.167.1-.323.193-.467.28l-.208.126-.186.126-.445.3-.305.2c-.083.055-.135.1-.135.1l-.6.431c-.088.065-.186.134-.289.208l-.311.247c-.215.173-.448.354-.674.542-.44.389-.889.77-1.2,1.086l-.384.37-.145.142-.508.531c-.315.311-.689.767-1.078,1.208-.362.465-.741.917-.988,1.284l-.428.6-.593.89a24.109,24.109,0,0,0-3.87,13.034v.038a24.1,24.1,0,0,0,3.87,13.034l.593.891.428.6c.247.366.626.819.988,1.284.389.441.763.9,1.078,1.207l.508.531.145.142.384.371c.31.315.759.7,1.2,1.085.227.189.46.368.674.542l.311.247.289.208.6.431s.052.042.135.1l.305.2.445.3.186.126.208.126.467.28c.328.207.716.4,1.136.626.105.055.211.113.323.168l.343.159.724.336c.512.2,1.044.44,1.626.628a24.382,24.382,0,0,0,16.07,0c.582-.188,1.115-.427,1.626-.628l.724-.336.343-.159c.112-.055.217-.113.323-.168.419-.224.807-.419,1.136-.626l.467-.28.208-.126.186-.126.445-.3.3-.2c.083-.055.135-.1.135-.1l.6-.431.289-.208.311-.247c.215-.173.448-.353.674-.542.44-.389.889-.77,1.2-1.085l.384-.371.145-.142.508-.531c.315-.311.689-.766,1.078-1.207.362-.465.741-.918.988-1.284s.428-.6.428-.6l.593-.891a24.1,24.1,0,0,0,3.87-13.034v-.035" transform="translate(-187.5 -206.352)"/>
    </g>
    <path id="Tracé_14" data-name="Tracé 14" d="M268.063,298.883h-2.646a.427.427,0,1,0,0,.854h2.646a.427.427,0,1,0,0-.854" transform="translate(724.518 346.516)"/>
    <g id="Groupe_10" data-name="Groupe 10" transform="translate(987.672 643.438)" clip-path="url(#clip-path-2)">
      <path id="Tracé_15" data-name="Tracé 15" d="M264.9,293.984a.448.448,0,0,0-.448-.445h-4.449a.445.445,0,1,0,0,.891h4.449a.448.448,0,0,0,.448-.445" transform="translate(-259.547 -293.359)"/>
    </g>
    <path id="Tracé_17" data-name="Tracé 17" d="M262.9,288.636a.446.446,0,0,0,.447.447h3.337a.446.446,0,1,0,0-.892h-3.337a.446.446,0,0,0-.447.445" transform="translate(725.899 353.644)"/>
    <g id="Groupe_11" data-name="Groupe 11" transform="translate(989.706 637.418)" clip-path="url(#clip-path-3)">
      <path id="Tracé_18" data-name="Tracé 18" d="M272.688,286.245a.8.8,0,1,1-.809.8A.805.805,0,0,1,272.688,286.245Zm5.622,0a.8.8,0,1,1-.808.8A.805.805,0,0,1,278.31,286.245Zm-8.418-8.409h11.454l-1.719,5.94h-7.715Zm1.957,6.671a.43.43,0,0,0,.114-.288h0A.413.413,0,0,1,271.849,284.506Zm-.909.124h.6c.012,0,.022.008.034.008l.029-.006h8.35a.419.419,0,0,0,.412-.3l1.962-6.8a.422.422,0,0,0-.069-.374.429.429,0,0,0-.341-.171H269.606l-.387-1.118a1.377,1.377,0,0,0-1.326-.923h-1.825a.409.409,0,1,0,0,.817h1.825a.54.54,0,0,1,.516.366l.462,1.362a.363.363,0,0,0,.043.113l2.1,6.177h-.073a1.876,1.876,0,0,0-1.858,1.874v.07a1.849,1.849,0,0,0,1.858,1.843h.172c-.056-.149-.056-.16,0,0a1.666,1.666,0,0,0,3.152,0c.055-.163.055-.152,0,0h2.47c-.056-.149-.056-.16,0,0a1.666,1.666,0,0,0,3.152,0c.055-.163.055-.152,0,0h.764a.409.409,0,1,0,0-.817h-.708s0-.014,0-.018a1.664,1.664,0,0,0-3.259,0s0,.017,0,.017h-2.359s0-.014,0-.018a1.665,1.665,0,0,0-3.26,0s0,.017,0,.017h-.116a1.017,1.017,0,0,1-1-1.026v-.07a1.011,1.011,0,0,1,1-1.019" transform="translate(-265.636 -274.941)"/>
    </g>
    <path id="Tracé_20" data-name="Tracé 20" d="M286.306,286.559h2.21v1.41h-2.21Zm-.674,0v1.41h-1.6a.316.316,0,1,0,0,.632h1.6v.95a.338.338,0,0,0,.674,0v-.95h2.21v.95a.338.338,0,0,0,.675,0v-.95h1.423a.316.316,0,1,0,0-.632H289.19v-1.41h1.978a.334.334,0,0,0,0-.668H289.19v-1.107a.338.338,0,0,0-.675,0v1.107h-2.21v-1.107a.337.337,0,0,0-.674,0v1.107h-2.255a.334.334,0,0,0,0,.668h2.255" transform="translate(712.463 356.13)"/>
    <g id="Groupe_12" data-name="Groupe 12" transform="translate(980.497 627.867)" clip-path="url(#clip-path-4)">
      <path id="Tracé_21" data-name="Tracé 21" d="M240.353,250.342a1.917,1.917,0,1,0-1.777-2.057,1.93,1.93,0,0,0,1.777,2.057" transform="translate(-238.379 -246.44)"/>
    </g>
    <g id="Groupe_13" data-name="Groupe 13" transform="translate(974.831 632.104)" clip-path="url(#clip-path-5)">
      <path id="Tracé_23" data-name="Tracé 23" d="M227.033,259.552a2,2,0,0,1,2.906.56l1.958,3.833,2.672,1.818a.852.852,0,0,1,.341.758.865.865,0,0,1-.937.788,1.085,1.085,0,0,1-.4-.128l-2.914-1.982a1.022,1.022,0,0,1-.224-.254l-.729-1.436-.88,3.821,3.443,4.016a1.215,1.215,0,0,1,.163.414l.93,4.848c-.008.108.008.176,0,.262a1.3,1.3,0,0,1-1.41,1.194,1.339,1.339,0,0,1-1.182-1.026l-.877-4.542-2.8-3.024-.646,2.944a3.375,3.375,0,0,1-.262.546l-2.688,4.471a1.329,1.329,0,0,1-1.224.626,1.3,1.3,0,0,1-1.21-1.4,1.535,1.535,0,0,1,.177-.56l2.495-4.132,2.083-9.105-1.361,1.086-.723,3.243a.916.916,0,0,1-.93.724.866.866,0,0,1-.8-.934.853.853,0,0,1,.014-.12l.855-3.78a.922.922,0,0,1,.268-.418l3.9-3.116Zm0,0" transform="translate(-221.037 -259.1)"/>
    </g>
  </g>
</svg>
